<svg id="Layer_1" data-name="Layer 1" xmlns="http://www.w3.org/2000/svg" viewBox="0 0 140.17 32.94"><rect width="140.17" height="32.94" rx="7.53" fill="#fff"/><path d="M37.32,29.66a1,1,0,0,0-.38.83.93.93,0,0,0,.46.82,8.84,8.84,0,0,0,2.15.72,6,6,0,0,1,2.6,1.24,3,3,0,0,1,.93,2.41,3.19,3.19,0,0,1-1.19,2.57,4.73,4.73,0,0,1-3.13,1,7.19,7.19,0,0,1-5-2.08l1.56-1.92a5.63,5.63,0,0,0,3.53,1.67A1.86,1.86,0,0,0,40,36.6a1,1,0,0,0,.41-.85,1,1,0,0,0-.44-.84,5.56,5.56,0,0,0-1.73-.63,7.53,7.53,0,0,1-3-1.28,3,3,0,0,1-1-2.46A3,3,0,0,1,35.43,28a4.83,4.83,0,0,1,3-.91,7,7,0,0,1,2.36.41,6.15,6.15,0,0,1,2.06,1.14l-1.33,1.93a5.19,5.19,0,0,0-3.17-1.17A1.63,1.63,0,0,0,37.32,29.66Z" transform="translate(-1.91 -19.53)" fill="#120353"/><path d="M54.06,34.57a4.49,4.49,0,0,1-1.36,3.32,5,5,0,0,1-6.87,0,4.73,4.73,0,0,1,0-6.66,5,5,0,0,1,6.87,0A4.53,4.53,0,0,1,54.06,34.57Zm-7.05,0a2.61,2.61,0,0,0,.63,1.81,2.1,2.1,0,0,0,1.62.7,2.07,2.07,0,0,0,1.62-.7,2.57,2.57,0,0,0,.64-1.81,2.62,2.62,0,0,0-.64-1.83A2.08,2.08,0,0,0,49.26,32a2.11,2.11,0,0,0-1.62.71A2.66,2.66,0,0,0,47,34.57Z" transform="translate(-1.91 -19.53)" fill="#120353"/><path d="M58.81,29.5v.61H61v1.82H58.81V39.1H56.26V31.93H55.2V30.11h1.06v-.56a3,3,0,0,1,3.15-3.22,3.52,3.52,0,0,1,2.43,1l-.91,1.71a1.6,1.6,0,0,0-1.23-.64.81.81,0,0,0-.64.28A1.14,1.14,0,0,0,58.81,29.5Z" transform="translate(-1.91 -19.53)" fill="#120353"/><path d="M65.59,31.85v4.07a1.15,1.15,0,0,0,.27.81.83.83,0,0,0,.64.3,1.47,1.47,0,0,0,1.2-.64l.94,1.77a3.63,3.63,0,0,1-2.49,1.08A3,3,0,0,1,63,36V31.85H62V30H63V27.31h2.55V30h2.19v1.82Z" transform="translate(-1.91 -19.53)" fill="#120353"/><path d="M74.72,39.1H72.1L69,30h2.62l1.77,5.48L75.17,30h2.45l1.77,5.48L81.16,30H83.8L80.71,39.1H78.08l-1.67-4.94Z" transform="translate(-1.91 -19.53)" fill="#120353"/><path d="M94.12,34.57a4.49,4.49,0,0,1-1.36,3.32,5,5,0,0,1-6.87,0,4.73,4.73,0,0,1,0-6.66,5,5,0,0,1,6.87,0A4.53,4.53,0,0,1,94.12,34.57Zm-7.05,0a2.61,2.61,0,0,0,.63,1.81,2.22,2.22,0,0,0,3.24,0,2.61,2.61,0,0,0,.64-1.81,2.67,2.67,0,0,0-.64-1.83,2.2,2.2,0,0,0-3.24,0A2.66,2.66,0,0,0,87.07,34.57Z" transform="translate(-1.91 -19.53)" fill="#120353"/><path d="M103.91,33.1h2.65v4.18a6.18,6.18,0,0,1-4.86,2,6,6,0,0,1-4.36-1.72,6.23,6.23,0,0,1,0-8.73A6,6,0,0,1,101.71,27a6.43,6.43,0,0,1,4.41,1.67l-1.37,2a5.28,5.28,0,0,0-1.46-.95,4,4,0,0,0-1.44-.26,3.46,3.46,0,0,0-2.53,1,3.61,3.61,0,0,0-1,2.69,3.65,3.65,0,0,0,1,2.68,3.18,3.18,0,0,0,2.35,1,4.52,4.52,0,0,0,2.28-.52Z" transform="translate(-1.91 -19.53)" fill="#00938e"/><path d="M116.36,39.1H114V38a3,3,0,0,1-2.42,1.23,3.58,3.58,0,0,1-2.42-.84,2.78,2.78,0,0,1-1-2.22,2.37,2.37,0,0,1,1-2.09,4.87,4.87,0,0,1,2.77-.69h1.89v0c0-1-.51-1.45-1.53-1.45a4.3,4.3,0,0,0-1.4.26,4.66,4.66,0,0,0-1.24.65l-1.13-1.64a6.84,6.84,0,0,1,4.09-1.29,4.24,4.24,0,0,1,2.7.82,3.15,3.15,0,0,1,1,2.62Zm-2.55-3.45v-.44h-1.58c-1,0-1.52.31-1.52.94a.86.86,0,0,0,.36.75,1.72,1.72,0,0,0,1,.26,1.81,1.81,0,0,0,1.19-.41A1.35,1.35,0,0,0,113.81,35.65Z" transform="translate(-1.91 -19.53)" fill="#120353"/><path d="M121.59,31.85v4.07a1.15,1.15,0,0,0,.27.81.84.84,0,0,0,.64.3,1.44,1.44,0,0,0,1.2-.64l1,1.77a3.66,3.66,0,0,1-2.49,1.08A3,3,0,0,1,119,36V31.85H118V30H119V27.31h2.55V30h2.2v1.82Z" transform="translate(-1.91 -19.53)" fill="#120353"/><path d="M133.86,37.79a5,5,0,0,1-3.6,1.45A4.78,4.78,0,0,1,126.84,38a4.48,4.48,0,0,1-1.35-3.42,4.39,4.39,0,0,1,1.38-3.41,4.63,4.63,0,0,1,3.24-1.26A4.7,4.7,0,0,1,133.29,31a3.88,3.88,0,0,1,1.31,3.11v1.35H128a1.8,1.8,0,0,0,.77,1.21,2.48,2.48,0,0,0,1.49.48,2.89,2.89,0,0,0,2.19-.9Zm-2.43-5.38a1.87,1.87,0,0,0-1.27-.44,2.32,2.32,0,0,0-1.38.45,1.72,1.72,0,0,0-.72,1.23h4A1.78,1.78,0,0,0,131.43,32.41Z" transform="translate(-1.91 -19.53)" fill="#120353"/><path d="M36,44.3v1.41h-.74v-1.4L33.66,41.7h.8l1.17,2,1.19-2h.73Z" transform="translate(-1.91 -19.53)" fill="#120353"/><path d="M38.64,45.55a1.42,1.42,0,0,1-.58-.56,1.58,1.58,0,0,1-.21-.81,1.52,1.52,0,0,1,.21-.8,1.42,1.42,0,0,1,.58-.56,1.86,1.86,0,0,1,1.68,0,1.42,1.42,0,0,1,.58.56,1.52,1.52,0,0,1,.21.8,1.58,1.58,0,0,1-.21.81,1.42,1.42,0,0,1-.58.56,1.86,1.86,0,0,1-1.68,0Zm1.49-.67a1.06,1.06,0,0,0,0-1.39.85.85,0,0,0-.65-.26.84.84,0,0,0-.65.26,1.06,1.06,0,0,0,0,1.39.87.87,0,0,0,.65.26A.89.89,0,0,0,40.13,44.88Z" transform="translate(-1.91 -19.53)" fill="#120353"/><path d="M45.23,42.65v3.06h-.68v-.39a1.13,1.13,0,0,1-.43.32,1.47,1.47,0,0,1-.56.11,1.3,1.3,0,0,1-1-.34,1.32,1.32,0,0,1-.35-1V42.65H43V44.3a.87.87,0,0,0,.19.62.69.69,0,0,0,.53.2.81.81,0,0,0,.61-.24.93.93,0,0,0,.22-.68V42.65Z" transform="translate(-1.91 -19.53)" fill="#120353"/><path d="M48.41,42.62v.68l-.16,0a.9.9,0,0,0-.66.25,1,1,0,0,0-.23.7v1.48h-.72V42.65h.69v.45A1.17,1.17,0,0,1,48.41,42.62Z" transform="translate(-1.91 -19.53)" fill="#120353"/><path d="M54.38,43.66h.71v1.6a2.47,2.47,0,0,1-.72.38,2.74,2.74,0,0,1-.85.13,2.21,2.21,0,0,1-1.1-.27,2,2,0,0,1-.78-.73,2.12,2.12,0,0,1-.28-1.06,2,2,0,0,1,1.06-1.8,2.39,2.39,0,0,1,1.11-.26,2.47,2.47,0,0,1,.92.16,1.89,1.89,0,0,1,.69.49l-.47.46a1.47,1.47,0,0,0-1.1-.46,1.55,1.55,0,0,0-.76.18,1.27,1.27,0,0,0-.51.49,1.41,1.41,0,0,0-.19.74,1.34,1.34,0,0,0,.19.72,1.29,1.29,0,0,0,.51.5,1.44,1.44,0,0,0,.75.19,1.56,1.56,0,0,0,.82-.21Z" transform="translate(-1.91 -19.53)" fill="#120353"/><path d="M58.68,42.94a1.29,1.29,0,0,1,.35,1v1.79h-.67v-.37a.84.84,0,0,1-.38.31,1.44,1.44,0,0,1-.58.1,1.48,1.48,0,0,1-.61-.12.83.83,0,0,1-.39-.32.79.79,0,0,1-.14-.47.83.83,0,0,1,.3-.67,1.59,1.59,0,0,1,1-.24h.79v0a.65.65,0,0,0-.19-.49.81.81,0,0,0-.57-.17,1.47,1.47,0,0,0-.51.08,1.05,1.05,0,0,0-.42.22L56.35,43a1.65,1.65,0,0,1,.58-.28,2.34,2.34,0,0,1,.71-.1A1.54,1.54,0,0,1,58.68,42.94ZM58,45.11a.69.69,0,0,0,.3-.35V44.4h-.74c-.41,0-.62.14-.62.41a.36.36,0,0,0,.16.31.72.72,0,0,0,.42.11A1,1,0,0,0,58,45.11Z" transform="translate(-1.91 -19.53)" fill="#120353"/><path d="M62.26,45.55a.84.84,0,0,1-.3.15,1.58,1.58,0,0,1-.38,0,1.1,1.1,0,0,1-.78-.26,1,1,0,0,1-.28-.77V43.25H60v-.57h.5V42h.72v.7h.82v.57h-.82V44.7a.44.44,0,0,0,.11.34.39.39,0,0,0,.31.12.63.63,0,0,0,.4-.12Z" transform="translate(-1.91 -19.53)" fill="#120353"/><path d="M66.09,44.41h-2.4A.81.81,0,0,0,64,45a1.1,1.1,0,0,0,.66.2,1.12,1.12,0,0,0,.83-.34l.38.44a1.26,1.26,0,0,1-.52.38,2,2,0,0,1-.71.12,1.85,1.85,0,0,1-.89-.2,1.45,1.45,0,0,1-.59-.56,1.65,1.65,0,0,1,0-1.61,1.37,1.37,0,0,1,.56-.56,1.68,1.68,0,0,1,.81-.2,1.61,1.61,0,0,1,.8.2,1.33,1.33,0,0,1,.55.55,1.73,1.73,0,0,1,.2.83A1.79,1.79,0,0,1,66.09,44.41ZM64,43.4a.85.85,0,0,0-.29.54h1.74a.89.89,0,0,0-.28-.54.92.92,0,0,0-1.17,0Z" transform="translate(-1.91 -19.53)" fill="#120353"/><path d="M72,42.65l-1.12,3.06h-.69l-.79-2.11-.8,2.11h-.69l-1.12-3.06h.67l.81,2.26.84-2.26h.6l.83,2.27.83-2.27Z" transform="translate(-1.91 -19.53)" fill="#120353"/><path d="M75.05,42.94a1.29,1.29,0,0,1,.35,1v1.79h-.67v-.37a.9.9,0,0,1-.38.31,1.44,1.44,0,0,1-.58.1,1.4,1.4,0,0,1-.6-.12.81.81,0,0,1-.4-.32.79.79,0,0,1-.14-.47.83.83,0,0,1,.3-.67,1.59,1.59,0,0,1,1-.24h.79v0a.65.65,0,0,0-.19-.49.81.81,0,0,0-.57-.17,1.44,1.44,0,0,0-.51.08,1.05,1.05,0,0,0-.42.22L72.72,43a1.65,1.65,0,0,1,.58-.28,2.34,2.34,0,0,1,.71-.1A1.54,1.54,0,0,1,75.05,42.94Zm-.66,2.17a.69.69,0,0,0,.3-.35V44.4H74c-.41,0-.62.14-.62.41a.36.36,0,0,0,.16.31.74.74,0,0,0,.43.11A.94.94,0,0,0,74.39,45.11Z" transform="translate(-1.91 -19.53)" fill="#120353"/><path d="M79.6,42.65,78.17,46a1.55,1.55,0,0,1-.49.7,1.19,1.19,0,0,1-.69.2,1.41,1.41,0,0,1-.45-.07,1,1,0,0,1-.37-.21l.29-.52a1,1,0,0,0,.24.15.71.71,0,0,0,.28.06.55.55,0,0,0,.32-.1.82.82,0,0,0,.22-.33l0-.12-1.33-3.07H77l1,2.27,1-2.27Z" transform="translate(-1.91 -19.53)" fill="#120353"/><path d="M84.42,45.55a1,1,0,0,1-.31.15,1.58,1.58,0,0,1-.38,0,1.1,1.1,0,0,1-.78-.26,1,1,0,0,1-.28-.77V43.25h-.5v-.57h.5V42h.72v.7h.82v.57h-.82V44.7a.48.48,0,0,0,.11.34.4.4,0,0,0,.31.12.69.69,0,0,0,.41-.12Z" transform="translate(-1.91 -19.53)" fill="#120353"/><path d="M85.92,45.55a1.45,1.45,0,0,1-.59-.56,1.68,1.68,0,0,1-.2-.81,1.61,1.61,0,0,1,.2-.8,1.45,1.45,0,0,1,.59-.56,1.73,1.73,0,0,1,.83-.2,1.77,1.77,0,0,1,.84.2,1.36,1.36,0,0,1,.58.56,1.52,1.52,0,0,1,.21.8,1.58,1.58,0,0,1-.21.81,1.36,1.36,0,0,1-.58.56,1.66,1.66,0,0,1-.84.2A1.62,1.62,0,0,1,85.92,45.55Zm1.48-.67a1.06,1.06,0,0,0,0-1.39.84.84,0,0,0-.65-.26.85.85,0,0,0-.65.26,1.09,1.09,0,0,0,0,1.39.89.89,0,0,0,.65.26A.87.87,0,0,0,87.4,44.88Z" transform="translate(-1.91 -19.53)" fill="#120353"/><path d="M91.67,41.7h.74v4h-.74Z" transform="translate(-1.91 -19.53)" fill="#120353"/><path d="M96.57,43a1.34,1.34,0,0,1,.35,1v1.75H96.2V44.05a.82.82,0,0,0-.19-.6.69.69,0,0,0-.54-.21.81.81,0,0,0-.62.24,1,1,0,0,0-.23.69v1.54H93.9V42.65h.68v.4a1.12,1.12,0,0,1,.45-.32,1.66,1.66,0,0,1,.61-.11A1.29,1.29,0,0,1,96.57,43Z" transform="translate(-1.91 -19.53)" fill="#120353"/><path d="M100.14,45.55a1,1,0,0,1-.31.15,1.58,1.58,0,0,1-.38,0,1.1,1.1,0,0,1-.78-.26,1,1,0,0,1-.27-.77V43.25h-.51v-.57h.51V42h.71v.7h.82v.57h-.82V44.7a.48.48,0,0,0,.11.34.41.41,0,0,0,.32.12.65.65,0,0,0,.4-.12Z" transform="translate(-1.91 -19.53)" fill="#120353"/><path d="M104,44.41h-2.4a.89.89,0,0,0,.33.54,1.19,1.19,0,0,0,1.49-.14l.39.44a1.33,1.33,0,0,1-.52.38,2,2,0,0,1-.71.12,1.83,1.83,0,0,1-.89-.2,1.39,1.39,0,0,1-.59-.56,1.58,1.58,0,0,1-.21-.81,1.67,1.67,0,0,1,.2-.8,1.46,1.46,0,0,1,.57-.56,1.68,1.68,0,0,1,.81-.2,1.64,1.64,0,0,1,.8.2,1.39,1.39,0,0,1,.55.55,1.72,1.72,0,0,1,.19.83A1.79,1.79,0,0,1,104,44.41Zm-2.11-1a.8.8,0,0,0-.29.54h1.73a.84.84,0,0,0-.28-.54.83.83,0,0,0-.58-.21A.84.84,0,0,0,101.85,43.4Z" transform="translate(-1.91 -19.53)" fill="#120353"/><path d="M105.14,41.46h.71v4.25h-.71Z" transform="translate(-1.91 -19.53)" fill="#120353"/><path d="M107.27,41.46H108v4.25h-.71Z" transform="translate(-1.91 -19.53)" fill="#120353"/><path d="M109.43,42a.4.4,0,0,1-.13-.31.38.38,0,0,1,.13-.3.44.44,0,0,1,.33-.13.44.44,0,0,1,.32.12.37.37,0,0,1,.13.29.44.44,0,0,1-.12.32.44.44,0,0,1-.33.13A.48.48,0,0,1,109.43,42Zm0,.62h.71v3.06h-.71Z" transform="translate(-1.91 -19.53)" fill="#120353"/><path d="M114.56,42.65v2.6a1.44,1.44,0,0,1-1.65,1.61,2.82,2.82,0,0,1-.83-.11,1.7,1.7,0,0,1-.66-.32l.32-.54a1.76,1.76,0,0,0,.51.27,2.23,2.23,0,0,0,.62.1,1,1,0,0,0,.74-.23.94.94,0,0,0,.23-.7v-.16a1.23,1.23,0,0,1-.44.3,1.57,1.57,0,0,1-.58.1,1.73,1.73,0,0,1-.79-.18,1.5,1.5,0,0,1-.55-2.07,1.45,1.45,0,0,1,.55-.52,1.73,1.73,0,0,1,.79-.18,1.64,1.64,0,0,1,.6.11,1,1,0,0,1,.46.33v-.41Zm-1,2.07a.88.88,0,0,0,0-1.25,1,1,0,0,0-.67-.24.93.93,0,0,0-.67.24.88.88,0,0,0,0,1.25.9.9,0,0,0,.67.25A.93.93,0,0,0,113.6,44.72Z" transform="translate(-1.91 -19.53)" fill="#120353"/><path d="M118.84,44.41h-2.4a.81.81,0,0,0,.33.54,1.1,1.1,0,0,0,.66.2,1.14,1.14,0,0,0,.83-.34l.38.44a1.33,1.33,0,0,1-.52.38,2,2,0,0,1-.71.12,1.85,1.85,0,0,1-.89-.2,1.45,1.45,0,0,1-.59-.56,1.65,1.65,0,0,1,0-1.61,1.37,1.37,0,0,1,.56-.56,1.68,1.68,0,0,1,.81-.2,1.61,1.61,0,0,1,.8.2,1.33,1.33,0,0,1,.55.55,1.73,1.73,0,0,1,.2.83S118.84,44.32,118.84,44.41Zm-2.12-1a.85.85,0,0,0-.29.54h1.74a.89.89,0,0,0-.28-.54.92.92,0,0,0-1.17,0Z" transform="translate(-1.91 -19.53)" fill="#120353"/><path d="M122.67,43a1.3,1.3,0,0,1,.35,1v1.75h-.71V44.05a.86.86,0,0,0-.19-.6.7.7,0,0,0-.54-.21.81.81,0,0,0-.62.24.93.93,0,0,0-.23.69v1.54H120V42.65h.68v.4a1.12,1.12,0,0,1,.45-.32,1.66,1.66,0,0,1,.61-.11A1.25,1.25,0,0,1,122.67,43Z" transform="translate(-1.91 -19.53)" fill="#120353"/><path d="M126.25,45.55a1,1,0,0,1-.31.15,1.58,1.58,0,0,1-.38,0,1.1,1.1,0,0,1-.78-.26,1,1,0,0,1-.27-.77V43.25H124v-.57h.51V42h.71v.7H126v.57h-.82V44.7a.48.48,0,0,0,.11.34.41.41,0,0,0,.32.12.65.65,0,0,0,.4-.12Z" transform="translate(-1.91 -19.53)" fill="#120353"/><path d="M129.44,41.7h.74v4h-.74Z" transform="translate(-1.91 -19.53)" fill="#120353"/><path d="M132.55,42.33h-1.33V41.7h3.4v.63h-1.33v3.38h-.74Z" transform="translate(-1.91 -19.53)" fill="#120353"/><path d="M30.75,33.06v10.5a2.16,2.16,0,0,1-2.15,2.15H22.47l.06-.06c.22-.25.47-.55.73-.9s.43-.58.5-.66L25,43.16a22,22,0,0,0,2.23-2l-.08-.49a15.18,15.18,0,0,1-1.27,1,12.06,12.06,0,0,1-1.25.77c.65-1.08,1.18-2,1.62-2.89a6.72,6.72,0,0,0,.65-1.47c0-.1-.08-.21-.25-.33a.82.82,0,0,0-.44-.17q-.2,0-1,.72c-.49.46-.91.85-1.28,1.18-1,.89-1.76,1.49-2.17,1.79a2,2,0,0,1-.91.44.36.36,0,0,1-.29-.13.51.51,0,0,1-.11-.34A2.78,2.78,0,0,1,21,39.83a8.86,8.86,0,0,1,1.58-1.73,13,13,0,0,1,1.71-1.26A8.77,8.77,0,0,1,26,36l-.73.76a.59.59,0,0,0-.12.14.16.16,0,0,0,0,.09.17.17,0,0,0,0,.1.13.13,0,0,0,.07,0A1.2,1.2,0,0,0,25.6,37l.95-.58a6,6,0,0,0,.93-.67.55.55,0,0,0,.19-.39,2.28,2.28,0,0,0-.12-.89c-.09-.17-.27-.25-.57-.25a5.9,5.9,0,0,0-2.17.51,11.73,11.73,0,0,0-2.46,1.39,8.5,8.5,0,0,0-2.2,2.26,4.47,4.47,0,0,0-.76,2.42,2.56,2.56,0,0,0,.37,1.45,1.09,1.09,0,0,0,.95.55A2.82,2.82,0,0,0,22,42.13a29.76,29.76,0,0,0,2.45-2.08c-.45.9-.87,1.69-1.25,2.36a6.9,6.9,0,0,1-.75,1.14c-.06.06-.25.21-.56.44a6.71,6.71,0,0,0-.75.66,3.23,3.23,0,0,0-.65.91l-.07.15H18.1A2.16,2.16,0,0,1,16,43.56V39.25L18.72,39,23,35.12V30.91H28.6A2.16,2.16,0,0,1,30.75,33.06Z" transform="translate(-1.91 -19.53)" fill="#00938e"/><path d="M19.29,33.4q0,1.8-2.25,3.18A10,10,0,0,1,11.7,38a4.25,4.25,0,0,1-2.12-.45,2.08,2.08,0,0,1-.81-.83V27.27A2.15,2.15,0,0,1,10,25.35a3.47,3.47,0,0,0-.69,2.09,2.82,2.82,0,0,0,.66,1.88,4.32,4.32,0,0,0,1.91,1.24,14.05,14.05,0,0,0,3.09.43l.65.06a6.49,6.49,0,0,1,2.85.71A1.8,1.8,0,0,1,19.29,33.4Z" transform="translate(-1.91 -19.53)" fill="#120353"/><path d="M23.58,27.27v10.5a2.16,2.16,0,0,1-2.16,2.15H10.93a2.14,2.14,0,0,1-2-1.34l.46.08a16.83,16.83,0,0,0,2.76.21,14.08,14.08,0,0,0,7.23-1.74q3-1.73,3-4.1a3.25,3.25,0,0,0-1.23-2.73,8.42,8.42,0,0,0-4-1.29l-1.44-.13a10.91,10.91,0,0,1-3.27-.61,2.46,2.46,0,0,1-.94-.73,1.55,1.55,0,0,1-.33-1,2,2,0,0,1,.64-1.46h9.63A2.16,2.16,0,0,1,23.58,27.27Z" transform="translate(-1.91 -19.53)" fill="#120353"/><circle cx="27.16" cy="7.27" r="1.68" fill="#00938e"/></svg>